<?xml version="1.0" encoding="utf-8" standalone="no"?>
<!DOCTYPE svg PUBLIC "-//W3C//DTD SVG 1.1//EN"
  "http://www.w3.org/Graphics/SVG/1.1/DTD/svg11.dtd">
<svg xmlns:xlink="http://www.w3.org/1999/xlink" width="460.8pt" height="345.6pt" viewBox="0 0 460.8 345.6" xmlns="http://www.w3.org/2000/svg" version="1.1">
 <metadata>
  <rdf:RDF xmlns:dc="http://purl.org/dc/elements/1.1/" xmlns:cc="http://creativecommons.org/ns#" xmlns:rdf="http://www.w3.org/1999/02/22-rdf-syntax-ns#">
   <cc:Work>
    <dc:type rdf:resource="http://purl.org/dc/dcmitype/StillImage"/>
    <dc:date>2023-07-27T17:08:41.489491</dc:date>
    <dc:format>image/svg+xml</dc:format>
    <dc:creator>
     <cc:Agent>
      <dc:title>Matplotlib v3.7.1, https://matplotlib.org/</dc:title>
     </cc:Agent>
    </dc:creator>
   </cc:Work>
  </rdf:RDF>
 </metadata>
 <defs>
  <style type="text/css">*{stroke-linejoin: round; stroke-linecap: butt}</style>
 </defs>
 <g id="figure_1">
  <g id="patch_1">
   <path d="M 0 345.6
L 460.8 345.6
L 460.8 0
L 0 0
z
" style="fill: #ffffff"/>
  </g>
  <g id="axes_1">
   <g id="patch_2">
    <path d="M 57.6 307.584
L 414.72 307.584
L 414.72 41.472
L 57.6 41.472
z
" style="fill: #ffffff"/>
   </g>
   <g id="matplotlib.axis_1">
    <g id="xtick_1">
     <g id="line2d_1">
      <defs>
       <path id="m5f8ed07d99" d="M 0 0
L 0 3.5
" style="stroke: #000000; stroke-width: 0.8"/>
      </defs>
      <g>
       <use xlink:href="#m5f8ed07d99" x="73.832727" y="307.584" style="stroke: #000000; stroke-width: 0.8"/>
      </g>
     </g>
     <g id="text_1">
      <!-- 0 -->
      <g transform="translate(70.651477 322.182437) scale(0.1 -0.1)">
       <defs>
        <path id="DejaVuSans-30" d="M 2034 4250
Q 1547 4250 1301 3770
Q 1056 3291 1056 2328
Q 1056 1369 1301 889
Q 1547 409 2034 409
Q 2525 409 2770 889
Q 3016 1369 3016 2328
Q 3016 3291 2770 3770
Q 2525 4250 2034 4250
z
M 2034 4750
Q 2819 4750 3233 4129
Q 3647 3509 3647 2328
Q 3647 1150 3233 529
Q 2819 -91 2034 -91
Q 1250 -91 836 529
Q 422 1150 422 2328
Q 422 3509 836 4129
Q 1250 4750 2034 4750
z
" transform="scale(0.015625)"/>
       </defs>
       <use xlink:href="#DejaVuSans-30"/>
      </g>
     </g>
    </g>
    <g id="xtick_2">
     <g id="line2d_2">
      <g>
       <use xlink:href="#m5f8ed07d99" x="117.943399" y="307.584" style="stroke: #000000; stroke-width: 0.8"/>
      </g>
     </g>
     <g id="text_2">
      <!-- 100 -->
      <g transform="translate(108.399649 322.182437) scale(0.1 -0.1)">
       <defs>
        <path id="DejaVuSans-31" d="M 794 531
L 1825 531
L 1825 4091
L 703 3866
L 703 4441
L 1819 4666
L 2450 4666
L 2450 531
L 3481 531
L 3481 0
L 794 0
L 794 531
z
" transform="scale(0.015625)"/>
       </defs>
       <use xlink:href="#DejaVuSans-31"/>
       <use xlink:href="#DejaVuSans-30" x="63.623047"/>
       <use xlink:href="#DejaVuSans-30" x="127.246094"/>
      </g>
     </g>
    </g>
    <g id="xtick_3">
     <g id="line2d_3">
      <g>
       <use xlink:href="#m5f8ed07d99" x="162.054071" y="307.584" style="stroke: #000000; stroke-width: 0.8"/>
      </g>
     </g>
     <g id="text_3">
      <!-- 200 -->
      <g transform="translate(152.510321 322.182437) scale(0.1 -0.1)">
       <defs>
        <path id="DejaVuSans-32" d="M 1228 531
L 3431 531
L 3431 0
L 469 0
L 469 531
Q 828 903 1448 1529
Q 2069 2156 2228 2338
Q 2531 2678 2651 2914
Q 2772 3150 2772 3378
Q 2772 3750 2511 3984
Q 2250 4219 1831 4219
Q 1534 4219 1204 4116
Q 875 4013 500 3803
L 500 4441
Q 881 4594 1212 4672
Q 1544 4750 1819 4750
Q 2544 4750 2975 4387
Q 3406 4025 3406 3419
Q 3406 3131 3298 2873
Q 3191 2616 2906 2266
Q 2828 2175 2409 1742
Q 1991 1309 1228 531
z
" transform="scale(0.015625)"/>
       </defs>
       <use xlink:href="#DejaVuSans-32"/>
       <use xlink:href="#DejaVuSans-30" x="63.623047"/>
       <use xlink:href="#DejaVuSans-30" x="127.246094"/>
      </g>
     </g>
    </g>
    <g id="xtick_4">
     <g id="line2d_4">
      <g>
       <use xlink:href="#m5f8ed07d99" x="206.164743" y="307.584" style="stroke: #000000; stroke-width: 0.8"/>
      </g>
     </g>
     <g id="text_4">
      <!-- 300 -->
      <g transform="translate(196.620993 322.182437) scale(0.1 -0.1)">
       <defs>
        <path id="DejaVuSans-33" d="M 2597 2516
Q 3050 2419 3304 2112
Q 3559 1806 3559 1356
Q 3559 666 3084 287
Q 2609 -91 1734 -91
Q 1441 -91 1130 -33
Q 819 25 488 141
L 488 750
Q 750 597 1062 519
Q 1375 441 1716 441
Q 2309 441 2620 675
Q 2931 909 2931 1356
Q 2931 1769 2642 2001
Q 2353 2234 1838 2234
L 1294 2234
L 1294 2753
L 1863 2753
Q 2328 2753 2575 2939
Q 2822 3125 2822 3475
Q 2822 3834 2567 4026
Q 2313 4219 1838 4219
Q 1578 4219 1281 4162
Q 984 4106 628 3988
L 628 4550
Q 988 4650 1302 4700
Q 1616 4750 1894 4750
Q 2613 4750 3031 4423
Q 3450 4097 3450 3541
Q 3450 3153 3228 2886
Q 3006 2619 2597 2516
z
" transform="scale(0.015625)"/>
       </defs>
       <use xlink:href="#DejaVuSans-33"/>
       <use xlink:href="#DejaVuSans-30" x="63.623047"/>
       <use xlink:href="#DejaVuSans-30" x="127.246094"/>
      </g>
     </g>
    </g>
    <g id="xtick_5">
     <g id="line2d_5">
      <g>
       <use xlink:href="#m5f8ed07d99" x="250.275415" y="307.584" style="stroke: #000000; stroke-width: 0.8"/>
      </g>
     </g>
     <g id="text_5">
      <!-- 400 -->
      <g transform="translate(240.731665 322.182437) scale(0.1 -0.1)">
       <defs>
        <path id="DejaVuSans-34" d="M 2419 4116
L 825 1625
L 2419 1625
L 2419 4116
z
M 2253 4666
L 3047 4666
L 3047 1625
L 3713 1625
L 3713 1100
L 3047 1100
L 3047 0
L 2419 0
L 2419 1100
L 313 1100
L 313 1709
L 2253 4666
z
" transform="scale(0.015625)"/>
       </defs>
       <use xlink:href="#DejaVuSans-34"/>
       <use xlink:href="#DejaVuSans-30" x="63.623047"/>
       <use xlink:href="#DejaVuSans-30" x="127.246094"/>
      </g>
     </g>
    </g>
    <g id="xtick_6">
     <g id="line2d_6">
      <g>
       <use xlink:href="#m5f8ed07d99" x="294.386087" y="307.584" style="stroke: #000000; stroke-width: 0.8"/>
      </g>
     </g>
     <g id="text_6">
      <!-- 500 -->
      <g transform="translate(284.842337 322.182437) scale(0.1 -0.1)">
       <defs>
        <path id="DejaVuSans-35" d="M 691 4666
L 3169 4666
L 3169 4134
L 1269 4134
L 1269 2991
Q 1406 3038 1543 3061
Q 1681 3084 1819 3084
Q 2600 3084 3056 2656
Q 3513 2228 3513 1497
Q 3513 744 3044 326
Q 2575 -91 1722 -91
Q 1428 -91 1123 -41
Q 819 9 494 109
L 494 744
Q 775 591 1075 516
Q 1375 441 1709 441
Q 2250 441 2565 725
Q 2881 1009 2881 1497
Q 2881 1984 2565 2268
Q 2250 2553 1709 2553
Q 1456 2553 1204 2497
Q 953 2441 691 2322
L 691 4666
z
" transform="scale(0.015625)"/>
       </defs>
       <use xlink:href="#DejaVuSans-35"/>
       <use xlink:href="#DejaVuSans-30" x="63.623047"/>
       <use xlink:href="#DejaVuSans-30" x="127.246094"/>
      </g>
     </g>
    </g>
    <g id="xtick_7">
     <g id="line2d_7">
      <g>
       <use xlink:href="#m5f8ed07d99" x="338.496759" y="307.584" style="stroke: #000000; stroke-width: 0.8"/>
      </g>
     </g>
     <g id="text_7">
      <!-- 600 -->
      <g transform="translate(328.953009 322.182437) scale(0.1 -0.1)">
       <defs>
        <path id="DejaVuSans-36" d="M 2113 2584
Q 1688 2584 1439 2293
Q 1191 2003 1191 1497
Q 1191 994 1439 701
Q 1688 409 2113 409
Q 2538 409 2786 701
Q 3034 994 3034 1497
Q 3034 2003 2786 2293
Q 2538 2584 2113 2584
z
M 3366 4563
L 3366 3988
Q 3128 4100 2886 4159
Q 2644 4219 2406 4219
Q 1781 4219 1451 3797
Q 1122 3375 1075 2522
Q 1259 2794 1537 2939
Q 1816 3084 2150 3084
Q 2853 3084 3261 2657
Q 3669 2231 3669 1497
Q 3669 778 3244 343
Q 2819 -91 2113 -91
Q 1303 -91 875 529
Q 447 1150 447 2328
Q 447 3434 972 4092
Q 1497 4750 2381 4750
Q 2619 4750 2861 4703
Q 3103 4656 3366 4563
z
" transform="scale(0.015625)"/>
       </defs>
       <use xlink:href="#DejaVuSans-36"/>
       <use xlink:href="#DejaVuSans-30" x="63.623047"/>
       <use xlink:href="#DejaVuSans-30" x="127.246094"/>
      </g>
     </g>
    </g>
    <g id="xtick_8">
     <g id="line2d_8">
      <g>
       <use xlink:href="#m5f8ed07d99" x="382.607431" y="307.584" style="stroke: #000000; stroke-width: 0.8"/>
      </g>
     </g>
     <g id="text_8">
      <!-- 700 -->
      <g transform="translate(373.063681 322.182437) scale(0.1 -0.1)">
       <defs>
        <path id="DejaVuSans-37" d="M 525 4666
L 3525 4666
L 3525 4397
L 1831 0
L 1172 0
L 2766 4134
L 525 4134
L 525 4666
z
" transform="scale(0.015625)"/>
       </defs>
       <use xlink:href="#DejaVuSans-37"/>
       <use xlink:href="#DejaVuSans-30" x="63.623047"/>
       <use xlink:href="#DejaVuSans-30" x="127.246094"/>
      </g>
     </g>
    </g>
    <g id="text_9">
     <!-- Training Steps -->
     <g transform="translate(200.855312 335.860562) scale(0.1 -0.1)">
      <defs>
       <path id="DejaVuSans-54" d="M -19 4666
L 3928 4666
L 3928 4134
L 2272 4134
L 2272 0
L 1638 0
L 1638 4134
L -19 4134
L -19 4666
z
" transform="scale(0.015625)"/>
       <path id="DejaVuSans-72" d="M 2631 2963
Q 2534 3019 2420 3045
Q 2306 3072 2169 3072
Q 1681 3072 1420 2755
Q 1159 2438 1159 1844
L 1159 0
L 581 0
L 581 3500
L 1159 3500
L 1159 2956
Q 1341 3275 1631 3429
Q 1922 3584 2338 3584
Q 2397 3584 2469 3576
Q 2541 3569 2628 3553
L 2631 2963
z
" transform="scale(0.015625)"/>
       <path id="DejaVuSans-61" d="M 2194 1759
Q 1497 1759 1228 1600
Q 959 1441 959 1056
Q 959 750 1161 570
Q 1363 391 1709 391
Q 2188 391 2477 730
Q 2766 1069 2766 1631
L 2766 1759
L 2194 1759
z
M 3341 1997
L 3341 0
L 2766 0
L 2766 531
Q 2569 213 2275 61
Q 1981 -91 1556 -91
Q 1019 -91 701 211
Q 384 513 384 1019
Q 384 1609 779 1909
Q 1175 2209 1959 2209
L 2766 2209
L 2766 2266
Q 2766 2663 2505 2880
Q 2244 3097 1772 3097
Q 1472 3097 1187 3025
Q 903 2953 641 2809
L 641 3341
Q 956 3463 1253 3523
Q 1550 3584 1831 3584
Q 2591 3584 2966 3190
Q 3341 2797 3341 1997
z
" transform="scale(0.015625)"/>
       <path id="DejaVuSans-69" d="M 603 3500
L 1178 3500
L 1178 0
L 603 0
L 603 3500
z
M 603 4863
L 1178 4863
L 1178 4134
L 603 4134
L 603 4863
z
" transform="scale(0.015625)"/>
       <path id="DejaVuSans-6e" d="M 3513 2113
L 3513 0
L 2938 0
L 2938 2094
Q 2938 2591 2744 2837
Q 2550 3084 2163 3084
Q 1697 3084 1428 2787
Q 1159 2491 1159 1978
L 1159 0
L 581 0
L 581 3500
L 1159 3500
L 1159 2956
Q 1366 3272 1645 3428
Q 1925 3584 2291 3584
Q 2894 3584 3203 3211
Q 3513 2838 3513 2113
z
" transform="scale(0.015625)"/>
       <path id="DejaVuSans-67" d="M 2906 1791
Q 2906 2416 2648 2759
Q 2391 3103 1925 3103
Q 1463 3103 1205 2759
Q 947 2416 947 1791
Q 947 1169 1205 825
Q 1463 481 1925 481
Q 2391 481 2648 825
Q 2906 1169 2906 1791
z
M 3481 434
Q 3481 -459 3084 -895
Q 2688 -1331 1869 -1331
Q 1566 -1331 1297 -1286
Q 1028 -1241 775 -1147
L 775 -588
Q 1028 -725 1275 -790
Q 1522 -856 1778 -856
Q 2344 -856 2625 -561
Q 2906 -266 2906 331
L 2906 616
Q 2728 306 2450 153
Q 2172 0 1784 0
Q 1141 0 747 490
Q 353 981 353 1791
Q 353 2603 747 3093
Q 1141 3584 1784 3584
Q 2172 3584 2450 3431
Q 2728 3278 2906 2969
L 2906 3500
L 3481 3500
L 3481 434
z
" transform="scale(0.015625)"/>
       <path id="DejaVuSans-20" transform="scale(0.015625)"/>
       <path id="DejaVuSans-53" d="M 3425 4513
L 3425 3897
Q 3066 4069 2747 4153
Q 2428 4238 2131 4238
Q 1616 4238 1336 4038
Q 1056 3838 1056 3469
Q 1056 3159 1242 3001
Q 1428 2844 1947 2747
L 2328 2669
Q 3034 2534 3370 2195
Q 3706 1856 3706 1288
Q 3706 609 3251 259
Q 2797 -91 1919 -91
Q 1588 -91 1214 -16
Q 841 59 441 206
L 441 856
Q 825 641 1194 531
Q 1563 422 1919 422
Q 2459 422 2753 634
Q 3047 847 3047 1241
Q 3047 1584 2836 1778
Q 2625 1972 2144 2069
L 1759 2144
Q 1053 2284 737 2584
Q 422 2884 422 3419
Q 422 4038 858 4394
Q 1294 4750 2059 4750
Q 2388 4750 2728 4690
Q 3069 4631 3425 4513
z
" transform="scale(0.015625)"/>
       <path id="DejaVuSans-74" d="M 1172 4494
L 1172 3500
L 2356 3500
L 2356 3053
L 1172 3053
L 1172 1153
Q 1172 725 1289 603
Q 1406 481 1766 481
L 2356 481
L 2356 0
L 1766 0
Q 1100 0 847 248
Q 594 497 594 1153
L 594 3053
L 172 3053
L 172 3500
L 594 3500
L 594 4494
L 1172 4494
z
" transform="scale(0.015625)"/>
       <path id="DejaVuSans-65" d="M 3597 1894
L 3597 1613
L 953 1613
Q 991 1019 1311 708
Q 1631 397 2203 397
Q 2534 397 2845 478
Q 3156 559 3463 722
L 3463 178
Q 3153 47 2828 -22
Q 2503 -91 2169 -91
Q 1331 -91 842 396
Q 353 884 353 1716
Q 353 2575 817 3079
Q 1281 3584 2069 3584
Q 2775 3584 3186 3129
Q 3597 2675 3597 1894
z
M 3022 2063
Q 3016 2534 2758 2815
Q 2500 3097 2075 3097
Q 1594 3097 1305 2825
Q 1016 2553 972 2059
L 3022 2063
z
" transform="scale(0.015625)"/>
       <path id="DejaVuSans-70" d="M 1159 525
L 1159 -1331
L 581 -1331
L 581 3500
L 1159 3500
L 1159 2969
Q 1341 3281 1617 3432
Q 1894 3584 2278 3584
Q 2916 3584 3314 3078
Q 3713 2572 3713 1747
Q 3713 922 3314 415
Q 2916 -91 2278 -91
Q 1894 -91 1617 61
Q 1341 213 1159 525
z
M 3116 1747
Q 3116 2381 2855 2742
Q 2594 3103 2138 3103
Q 1681 3103 1420 2742
Q 1159 2381 1159 1747
Q 1159 1113 1420 752
Q 1681 391 2138 391
Q 2594 391 2855 752
Q 3116 1113 3116 1747
z
" transform="scale(0.015625)"/>
       <path id="DejaVuSans-73" d="M 2834 3397
L 2834 2853
Q 2591 2978 2328 3040
Q 2066 3103 1784 3103
Q 1356 3103 1142 2972
Q 928 2841 928 2578
Q 928 2378 1081 2264
Q 1234 2150 1697 2047
L 1894 2003
Q 2506 1872 2764 1633
Q 3022 1394 3022 966
Q 3022 478 2636 193
Q 2250 -91 1575 -91
Q 1294 -91 989 -36
Q 684 19 347 128
L 347 722
Q 666 556 975 473
Q 1284 391 1588 391
Q 1994 391 2212 530
Q 2431 669 2431 922
Q 2431 1156 2273 1281
Q 2116 1406 1581 1522
L 1381 1569
Q 847 1681 609 1914
Q 372 2147 372 2553
Q 372 3047 722 3315
Q 1072 3584 1716 3584
Q 2034 3584 2315 3537
Q 2597 3491 2834 3397
z
" transform="scale(0.015625)"/>
      </defs>
      <use xlink:href="#DejaVuSans-54"/>
      <use xlink:href="#DejaVuSans-72" x="46.333984"/>
      <use xlink:href="#DejaVuSans-61" x="87.447266"/>
      <use xlink:href="#DejaVuSans-69" x="148.726562"/>
      <use xlink:href="#DejaVuSans-6e" x="176.509766"/>
      <use xlink:href="#DejaVuSans-69" x="239.888672"/>
      <use xlink:href="#DejaVuSans-6e" x="267.671875"/>
      <use xlink:href="#DejaVuSans-67" x="331.050781"/>
      <use xlink:href="#DejaVuSans-20" x="394.527344"/>
      <use xlink:href="#DejaVuSans-53" x="426.314453"/>
      <use xlink:href="#DejaVuSans-74" x="489.791016"/>
      <use xlink:href="#DejaVuSans-65" x="529"/>
      <use xlink:href="#DejaVuSans-70" x="590.523438"/>
      <use xlink:href="#DejaVuSans-73" x="654"/>
     </g>
    </g>
   </g>
   <g id="matplotlib.axis_2">
    <g id="ytick_1">
     <g id="line2d_9">
      <defs>
       <path id="m94142a71d4" d="M 0 0
L -3.5 0
" style="stroke: #000000; stroke-width: 0.8"/>
      </defs>
      <g>
       <use xlink:href="#m94142a71d4" x="57.6" y="300.20839" style="stroke: #000000; stroke-width: 0.8"/>
      </g>
     </g>
     <g id="text_10">
      <!-- 63.0 -->
      <g transform="translate(28.334375 304.007609) scale(0.1 -0.1)">
       <defs>
        <path id="DejaVuSans-2e" d="M 684 794
L 1344 794
L 1344 0
L 684 0
L 684 794
z
" transform="scale(0.015625)"/>
       </defs>
       <use xlink:href="#DejaVuSans-36"/>
       <use xlink:href="#DejaVuSans-33" x="63.623047"/>
       <use xlink:href="#DejaVuSans-2e" x="127.246094"/>
       <use xlink:href="#DejaVuSans-30" x="159.033203"/>
      </g>
     </g>
    </g>
    <g id="ytick_2">
     <g id="line2d_10">
      <g>
       <use xlink:href="#m94142a71d4" x="57.6" y="249.857561" style="stroke: #000000; stroke-width: 0.8"/>
      </g>
     </g>
     <g id="text_11">
      <!-- 63.5 -->
      <g transform="translate(28.334375 253.65678) scale(0.1 -0.1)">
       <use xlink:href="#DejaVuSans-36"/>
       <use xlink:href="#DejaVuSans-33" x="63.623047"/>
       <use xlink:href="#DejaVuSans-2e" x="127.246094"/>
       <use xlink:href="#DejaVuSans-35" x="159.033203"/>
      </g>
     </g>
    </g>
    <g id="ytick_3">
     <g id="line2d_11">
      <g>
       <use xlink:href="#m94142a71d4" x="57.6" y="199.506732" style="stroke: #000000; stroke-width: 0.8"/>
      </g>
     </g>
     <g id="text_12">
      <!-- 64.0 -->
      <g transform="translate(28.334375 203.30595) scale(0.1 -0.1)">
       <use xlink:href="#DejaVuSans-36"/>
       <use xlink:href="#DejaVuSans-34" x="63.623047"/>
       <use xlink:href="#DejaVuSans-2e" x="127.246094"/>
       <use xlink:href="#DejaVuSans-30" x="159.033203"/>
      </g>
     </g>
    </g>
    <g id="ytick_4">
     <g id="line2d_12">
      <g>
       <use xlink:href="#m94142a71d4" x="57.6" y="149.155902" style="stroke: #000000; stroke-width: 0.8"/>
      </g>
     </g>
     <g id="text_13">
      <!-- 64.5 -->
      <g transform="translate(28.334375 152.955121) scale(0.1 -0.1)">
       <use xlink:href="#DejaVuSans-36"/>
       <use xlink:href="#DejaVuSans-34" x="63.623047"/>
       <use xlink:href="#DejaVuSans-2e" x="127.246094"/>
       <use xlink:href="#DejaVuSans-35" x="159.033203"/>
      </g>
     </g>
    </g>
    <g id="ytick_5">
     <g id="line2d_13">
      <g>
       <use xlink:href="#m94142a71d4" x="57.6" y="98.805073" style="stroke: #000000; stroke-width: 0.8"/>
      </g>
     </g>
     <g id="text_14">
      <!-- 65.0 -->
      <g transform="translate(28.334375 102.604292) scale(0.1 -0.1)">
       <use xlink:href="#DejaVuSans-36"/>
       <use xlink:href="#DejaVuSans-35" x="63.623047"/>
       <use xlink:href="#DejaVuSans-2e" x="127.246094"/>
       <use xlink:href="#DejaVuSans-30" x="159.033203"/>
      </g>
     </g>
    </g>
    <g id="ytick_6">
     <g id="line2d_14">
      <g>
       <use xlink:href="#m94142a71d4" x="57.6" y="48.454244" style="stroke: #000000; stroke-width: 0.8"/>
      </g>
     </g>
     <g id="text_15">
      <!-- 65.5 -->
      <g transform="translate(28.334375 52.253463) scale(0.1 -0.1)">
       <use xlink:href="#DejaVuSans-36"/>
       <use xlink:href="#DejaVuSans-35" x="63.623047"/>
       <use xlink:href="#DejaVuSans-2e" x="127.246094"/>
       <use xlink:href="#DejaVuSans-35" x="159.033203"/>
      </g>
     </g>
    </g>
    <g id="text_16">
     <!-- Mean Accuracy over SST-2 Validation Splits -->
     <g transform="translate(22.254687 282.388937) rotate(-90) scale(0.1 -0.1)">
      <defs>
       <path id="DejaVuSans-4d" d="M 628 4666
L 1569 4666
L 2759 1491
L 3956 4666
L 4897 4666
L 4897 0
L 4281 0
L 4281 4097
L 3078 897
L 2444 897
L 1241 4097
L 1241 0
L 628 0
L 628 4666
z
" transform="scale(0.015625)"/>
       <path id="DejaVuSans-41" d="M 2188 4044
L 1331 1722
L 3047 1722
L 2188 4044
z
M 1831 4666
L 2547 4666
L 4325 0
L 3669 0
L 3244 1197
L 1141 1197
L 716 0
L 50 0
L 1831 4666
z
" transform="scale(0.015625)"/>
       <path id="DejaVuSans-63" d="M 3122 3366
L 3122 2828
Q 2878 2963 2633 3030
Q 2388 3097 2138 3097
Q 1578 3097 1268 2742
Q 959 2388 959 1747
Q 959 1106 1268 751
Q 1578 397 2138 397
Q 2388 397 2633 464
Q 2878 531 3122 666
L 3122 134
Q 2881 22 2623 -34
Q 2366 -91 2075 -91
Q 1284 -91 818 406
Q 353 903 353 1747
Q 353 2603 823 3093
Q 1294 3584 2113 3584
Q 2378 3584 2631 3529
Q 2884 3475 3122 3366
z
" transform="scale(0.015625)"/>
       <path id="DejaVuSans-75" d="M 544 1381
L 544 3500
L 1119 3500
L 1119 1403
Q 1119 906 1312 657
Q 1506 409 1894 409
Q 2359 409 2629 706
Q 2900 1003 2900 1516
L 2900 3500
L 3475 3500
L 3475 0
L 2900 0
L 2900 538
Q 2691 219 2414 64
Q 2138 -91 1772 -91
Q 1169 -91 856 284
Q 544 659 544 1381
z
M 1991 3584
L 1991 3584
z
" transform="scale(0.015625)"/>
       <path id="DejaVuSans-79" d="M 2059 -325
Q 1816 -950 1584 -1140
Q 1353 -1331 966 -1331
L 506 -1331
L 506 -850
L 844 -850
Q 1081 -850 1212 -737
Q 1344 -625 1503 -206
L 1606 56
L 191 3500
L 800 3500
L 1894 763
L 2988 3500
L 3597 3500
L 2059 -325
z
" transform="scale(0.015625)"/>
       <path id="DejaVuSans-6f" d="M 1959 3097
Q 1497 3097 1228 2736
Q 959 2375 959 1747
Q 959 1119 1226 758
Q 1494 397 1959 397
Q 2419 397 2687 759
Q 2956 1122 2956 1747
Q 2956 2369 2687 2733
Q 2419 3097 1959 3097
z
M 1959 3584
Q 2709 3584 3137 3096
Q 3566 2609 3566 1747
Q 3566 888 3137 398
Q 2709 -91 1959 -91
Q 1206 -91 779 398
Q 353 888 353 1747
Q 353 2609 779 3096
Q 1206 3584 1959 3584
z
" transform="scale(0.015625)"/>
       <path id="DejaVuSans-76" d="M 191 3500
L 800 3500
L 1894 563
L 2988 3500
L 3597 3500
L 2284 0
L 1503 0
L 191 3500
z
" transform="scale(0.015625)"/>
       <path id="DejaVuSans-2d" d="M 313 2009
L 1997 2009
L 1997 1497
L 313 1497
L 313 2009
z
" transform="scale(0.015625)"/>
       <path id="DejaVuSans-56" d="M 1831 0
L 50 4666
L 709 4666
L 2188 738
L 3669 4666
L 4325 4666
L 2547 0
L 1831 0
z
" transform="scale(0.015625)"/>
       <path id="DejaVuSans-6c" d="M 603 4863
L 1178 4863
L 1178 0
L 603 0
L 603 4863
z
" transform="scale(0.015625)"/>
       <path id="DejaVuSans-64" d="M 2906 2969
L 2906 4863
L 3481 4863
L 3481 0
L 2906 0
L 2906 525
Q 2725 213 2448 61
Q 2172 -91 1784 -91
Q 1150 -91 751 415
Q 353 922 353 1747
Q 353 2572 751 3078
Q 1150 3584 1784 3584
Q 2172 3584 2448 3432
Q 2725 3281 2906 2969
z
M 947 1747
Q 947 1113 1208 752
Q 1469 391 1925 391
Q 2381 391 2643 752
Q 2906 1113 2906 1747
Q 2906 2381 2643 2742
Q 2381 3103 1925 3103
Q 1469 3103 1208 2742
Q 947 2381 947 1747
z
" transform="scale(0.015625)"/>
      </defs>
      <use xlink:href="#DejaVuSans-4d"/>
      <use xlink:href="#DejaVuSans-65" x="86.279297"/>
      <use xlink:href="#DejaVuSans-61" x="147.802734"/>
      <use xlink:href="#DejaVuSans-6e" x="209.082031"/>
      <use xlink:href="#DejaVuSans-20" x="272.460938"/>
      <use xlink:href="#DejaVuSans-41" x="304.248047"/>
      <use xlink:href="#DejaVuSans-63" x="370.90625"/>
      <use xlink:href="#DejaVuSans-63" x="425.886719"/>
      <use xlink:href="#DejaVuSans-75" x="480.867188"/>
      <use xlink:href="#DejaVuSans-72" x="544.246094"/>
      <use xlink:href="#DejaVuSans-61" x="585.359375"/>
      <use xlink:href="#DejaVuSans-63" x="646.638672"/>
      <use xlink:href="#DejaVuSans-79" x="701.619141"/>
      <use xlink:href="#DejaVuSans-20" x="760.798828"/>
      <use xlink:href="#DejaVuSans-6f" x="792.585938"/>
      <use xlink:href="#DejaVuSans-76" x="853.767578"/>
      <use xlink:href="#DejaVuSans-65" x="912.947266"/>
      <use xlink:href="#DejaVuSans-72" x="974.470703"/>
      <use xlink:href="#DejaVuSans-20" x="1015.583984"/>
      <use xlink:href="#DejaVuSans-53" x="1047.371094"/>
      <use xlink:href="#DejaVuSans-53" x="1110.847656"/>
      <use xlink:href="#DejaVuSans-54" x="1174.324219"/>
      <use xlink:href="#DejaVuSans-2d" x="1226.283203"/>
      <use xlink:href="#DejaVuSans-32" x="1262.367188"/>
      <use xlink:href="#DejaVuSans-20" x="1325.990234"/>
      <use xlink:href="#DejaVuSans-56" x="1357.777344"/>
      <use xlink:href="#DejaVuSans-61" x="1418.435547"/>
      <use xlink:href="#DejaVuSans-6c" x="1479.714844"/>
      <use xlink:href="#DejaVuSans-69" x="1507.498047"/>
      <use xlink:href="#DejaVuSans-64" x="1535.28125"/>
      <use xlink:href="#DejaVuSans-61" x="1598.757812"/>
      <use xlink:href="#DejaVuSans-74" x="1660.037109"/>
      <use xlink:href="#DejaVuSans-69" x="1699.246094"/>
      <use xlink:href="#DejaVuSans-6f" x="1727.029297"/>
      <use xlink:href="#DejaVuSans-6e" x="1788.210938"/>
      <use xlink:href="#DejaVuSans-20" x="1851.589844"/>
      <use xlink:href="#DejaVuSans-53" x="1883.376953"/>
      <use xlink:href="#DejaVuSans-70" x="1946.853516"/>
      <use xlink:href="#DejaVuSans-6c" x="2010.330078"/>
      <use xlink:href="#DejaVuSans-69" x="2038.113281"/>
      <use xlink:href="#DejaVuSans-74" x="2065.896484"/>
      <use xlink:href="#DejaVuSans-73" x="2105.105469"/>
     </g>
    </g>
   </g>
   <g id="line2d_15">
    <path d="M 73.832727 295.488
L 87.948142 267.95239
L 102.063557 246.317268
L 116.178972 246.317268
L 130.294387 226.648976
L 144.409802 246.317268
L 158.525217 258.118244
L 172.640632 212.881171
L 186.756047 226.648976
L 200.871462 244.350439
L 214.986877 205.013854
L 229.102292 197.146537
L 243.217708 197.146537
L 257.333123 281.720195
L 271.448538 242.38361
L 285.563953 224.682146
L 299.679368 197.146537
L 313.794783 205.013854
L 327.910198 210.914341
L 342.025613 159.77678
L 356.141028 201.080195
L 370.256443 157.809951
L 384.371858 218.781659
L 398.487273 210.914341
" clip-path="url(#p3b1185dd56)" style="fill: none; stroke-dasharray: 1.48,0.64; stroke-dashoffset: 0; stroke: #00ff7f; stroke-width: 0.4"/>
    <defs>
     <path id="m5a1655ac7b" d="M -3 3
L 3 -3
M -3 -3
L 3 3
" style="stroke: #00ff7f; stroke-width: 0.5"/>
    </defs>
    <g clip-path="url(#p3b1185dd56)">
     <use xlink:href="#m5a1655ac7b" x="73.832727" y="295.488" style="fill: #00ff7f; stroke: #00ff7f; stroke-width: 0.5"/>
     <use xlink:href="#m5a1655ac7b" x="87.948142" y="267.95239" style="fill: #00ff7f; stroke: #00ff7f; stroke-width: 0.5"/>
     <use xlink:href="#m5a1655ac7b" x="102.063557" y="246.317268" style="fill: #00ff7f; stroke: #00ff7f; stroke-width: 0.5"/>
     <use xlink:href="#m5a1655ac7b" x="116.178972" y="246.317268" style="fill: #00ff7f; stroke: #00ff7f; stroke-width: 0.5"/>
     <use xlink:href="#m5a1655ac7b" x="130.294387" y="226.648976" style="fill: #00ff7f; stroke: #00ff7f; stroke-width: 0.5"/>
     <use xlink:href="#m5a1655ac7b" x="144.409802" y="246.317268" style="fill: #00ff7f; stroke: #00ff7f; stroke-width: 0.5"/>
     <use xlink:href="#m5a1655ac7b" x="158.525217" y="258.118244" style="fill: #00ff7f; stroke: #00ff7f; stroke-width: 0.5"/>
     <use xlink:href="#m5a1655ac7b" x="172.640632" y="212.881171" style="fill: #00ff7f; stroke: #00ff7f; stroke-width: 0.5"/>
     <use xlink:href="#m5a1655ac7b" x="186.756047" y="226.648976" style="fill: #00ff7f; stroke: #00ff7f; stroke-width: 0.5"/>
     <use xlink:href="#m5a1655ac7b" x="200.871462" y="244.350439" style="fill: #00ff7f; stroke: #00ff7f; stroke-width: 0.5"/>
     <use xlink:href="#m5a1655ac7b" x="214.986877" y="205.013854" style="fill: #00ff7f; stroke: #00ff7f; stroke-width: 0.5"/>
     <use xlink:href="#m5a1655ac7b" x="229.102292" y="197.146537" style="fill: #00ff7f; stroke: #00ff7f; stroke-width: 0.5"/>
     <use xlink:href="#m5a1655ac7b" x="243.217708" y="197.146537" style="fill: #00ff7f; stroke: #00ff7f; stroke-width: 0.5"/>
     <use xlink:href="#m5a1655ac7b" x="257.333123" y="281.720195" style="fill: #00ff7f; stroke: #00ff7f; stroke-width: 0.5"/>
     <use xlink:href="#m5a1655ac7b" x="271.448538" y="242.38361" style="fill: #00ff7f; stroke: #00ff7f; stroke-width: 0.5"/>
     <use xlink:href="#m5a1655ac7b" x="285.563953" y="224.682146" style="fill: #00ff7f; stroke: #00ff7f; stroke-width: 0.5"/>
     <use xlink:href="#m5a1655ac7b" x="299.679368" y="197.146537" style="fill: #00ff7f; stroke: #00ff7f; stroke-width: 0.5"/>
     <use xlink:href="#m5a1655ac7b" x="313.794783" y="205.013854" style="fill: #00ff7f; stroke: #00ff7f; stroke-width: 0.5"/>
     <use xlink:href="#m5a1655ac7b" x="327.910198" y="210.914341" style="fill: #00ff7f; stroke: #00ff7f; stroke-width: 0.5"/>
     <use xlink:href="#m5a1655ac7b" x="342.025613" y="159.77678" style="fill: #00ff7f; stroke: #00ff7f; stroke-width: 0.5"/>
     <use xlink:href="#m5a1655ac7b" x="356.141028" y="201.080195" style="fill: #00ff7f; stroke: #00ff7f; stroke-width: 0.5"/>
     <use xlink:href="#m5a1655ac7b" x="370.256443" y="157.809951" style="fill: #00ff7f; stroke: #00ff7f; stroke-width: 0.5"/>
     <use xlink:href="#m5a1655ac7b" x="384.371858" y="218.781659" style="fill: #00ff7f; stroke: #00ff7f; stroke-width: 0.5"/>
     <use xlink:href="#m5a1655ac7b" x="398.487273" y="210.914341" style="fill: #00ff7f; stroke: #00ff7f; stroke-width: 0.5"/>
    </g>
   </g>
   <g id="line2d_16">
    <path d="M 73.832727 295.488
L 87.948142 153.876293
L 102.063557 232.549463
L 116.178972 171.577756
L 130.294387 136.174829
L 144.409802 165.677268
L 158.525217 90.937756
L 172.640632 124.373854
L 186.756047 126.340683
L 200.871462 132.241171
L 214.986877 116.506537
L 229.102292 59.468488
L 243.217708 112.572878
L 257.333123 77.169951
L 271.448538 85.037268
L 285.563953 90.937756
L 299.679368 88.970927
L 313.794783 79.13678
L 327.910198 71.269463
L 342.025613 67.335805
L 356.141028 77.169951
L 370.256443 53.568
L 384.371858 71.269463
L 398.487273 100.771902
" clip-path="url(#p3b1185dd56)" style="fill: none; stroke-dasharray: 1.48,0.64; stroke-dashoffset: 0; stroke: #808080; stroke-width: 0.4"/>
    <defs>
     <path id="m0d7cf798f0" d="M 0 1.5
C 0.397805 1.5 0.77937 1.341951 1.06066 1.06066
C 1.341951 0.77937 1.5 0.397805 1.5 0
C 1.5 -0.397805 1.341951 -0.77937 1.06066 -1.06066
C 0.77937 -1.341951 0.397805 -1.5 0 -1.5
C -0.397805 -1.5 -0.77937 -1.341951 -1.06066 -1.06066
C -1.341951 -0.77937 -1.5 -0.397805 -1.5 0
C -1.5 0.397805 -1.341951 0.77937 -1.06066 1.06066
C -0.77937 1.341951 -0.397805 1.5 0 1.5
z
" style="stroke: #808080; stroke-width: 0.5"/>
    </defs>
    <g clip-path="url(#p3b1185dd56)">
     <use xlink:href="#m0d7cf798f0" x="73.832727" y="295.488" style="fill: #808080; stroke: #808080; stroke-width: 0.5"/>
     <use xlink:href="#m0d7cf798f0" x="87.948142" y="153.876293" style="fill: #808080; stroke: #808080; stroke-width: 0.5"/>
     <use xlink:href="#m0d7cf798f0" x="102.063557" y="232.549463" style="fill: #808080; stroke: #808080; stroke-width: 0.5"/>
     <use xlink:href="#m0d7cf798f0" x="116.178972" y="171.577756" style="fill: #808080; stroke: #808080; stroke-width: 0.5"/>
     <use xlink:href="#m0d7cf798f0" x="130.294387" y="136.174829" style="fill: #808080; stroke: #808080; stroke-width: 0.5"/>
     <use xlink:href="#m0d7cf798f0" x="144.409802" y="165.677268" style="fill: #808080; stroke: #808080; stroke-width: 0.5"/>
     <use xlink:href="#m0d7cf798f0" x="158.525217" y="90.937756" style="fill: #808080; stroke: #808080; stroke-width: 0.5"/>
     <use xlink:href="#m0d7cf798f0" x="172.640632" y="124.373854" style="fill: #808080; stroke: #808080; stroke-width: 0.5"/>
     <use xlink:href="#m0d7cf798f0" x="186.756047" y="126.340683" style="fill: #808080; stroke: #808080; stroke-width: 0.5"/>
     <use xlink:href="#m0d7cf798f0" x="200.871462" y="132.241171" style="fill: #808080; stroke: #808080; stroke-width: 0.5"/>
     <use xlink:href="#m0d7cf798f0" x="214.986877" y="116.506537" style="fill: #808080; stroke: #808080; stroke-width: 0.5"/>
     <use xlink:href="#m0d7cf798f0" x="229.102292" y="59.468488" style="fill: #808080; stroke: #808080; stroke-width: 0.5"/>
     <use xlink:href="#m0d7cf798f0" x="243.217708" y="112.572878" style="fill: #808080; stroke: #808080; stroke-width: 0.5"/>
     <use xlink:href="#m0d7cf798f0" x="257.333123" y="77.169951" style="fill: #808080; stroke: #808080; stroke-width: 0.5"/>
     <use xlink:href="#m0d7cf798f0" x="271.448538" y="85.037268" style="fill: #808080; stroke: #808080; stroke-width: 0.5"/>
     <use xlink:href="#m0d7cf798f0" x="285.563953" y="90.937756" style="fill: #808080; stroke: #808080; stroke-width: 0.5"/>
     <use xlink:href="#m0d7cf798f0" x="299.679368" y="88.970927" style="fill: #808080; stroke: #808080; stroke-width: 0.5"/>
     <use xlink:href="#m0d7cf798f0" x="313.794783" y="79.13678" style="fill: #808080; stroke: #808080; stroke-width: 0.5"/>
     <use xlink:href="#m0d7cf798f0" x="327.910198" y="71.269463" style="fill: #808080; stroke: #808080; stroke-width: 0.5"/>
     <use xlink:href="#m0d7cf798f0" x="342.025613" y="67.335805" style="fill: #808080; stroke: #808080; stroke-width: 0.5"/>
     <use xlink:href="#m0d7cf798f0" x="356.141028" y="77.169951" style="fill: #808080; stroke: #808080; stroke-width: 0.5"/>
     <use xlink:href="#m0d7cf798f0" x="370.256443" y="53.568" style="fill: #808080; stroke: #808080; stroke-width: 0.5"/>
     <use xlink:href="#m0d7cf798f0" x="384.371858" y="71.269463" style="fill: #808080; stroke: #808080; stroke-width: 0.5"/>
     <use xlink:href="#m0d7cf798f0" x="398.487273" y="100.771902" style="fill: #808080; stroke: #808080; stroke-width: 0.5"/>
    </g>
   </g>
   <g id="line2d_17">
    <path d="M 73.832727 295.488
L 87.948142 250.250927
L 102.063557 191.246049
L 116.178972 147.975805
L 130.294387 142.075317
L 144.409802 147.975805
L 158.525217 149.942634
L 172.640632 98.805073
L 186.756047 94.871415
L 200.871462 175.511415
L 214.986877 169.610927
L 229.102292 112.572878
L 243.217708 92.904585
L 257.333123 108.63922
L 271.448538 128.307512
L 285.563953 81.10361
L 299.679368 124.373854
L 313.794783 116.506537
L 327.910198 94.871415
L 342.025613 122.407024
L 356.141028 77.169951
L 370.256443 104.705561
L 384.371858 57.501659
L 398.487273 73.236293
" clip-path="url(#p3b1185dd56)" style="fill: none; stroke-dasharray: 1.48,0.64; stroke-dashoffset: 0; stroke: #f4a460; stroke-width: 0.4"/>
    <defs>
     <path id="m5ed0cb114d" d="M 3 4.5
L 0 0
L -3 4.5
" style="stroke: #f4a460; stroke-width: 0.5; stroke-linejoin: miter"/>
    </defs>
    <g clip-path="url(#p3b1185dd56)">
     <use xlink:href="#m5ed0cb114d" x="73.832727" y="295.488" style="fill: #f4a460; stroke: #f4a460; stroke-width: 0.5; stroke-linejoin: miter"/>
     <use xlink:href="#m5ed0cb114d" x="87.948142" y="250.250927" style="fill: #f4a460; stroke: #f4a460; stroke-width: 0.5; stroke-linejoin: miter"/>
     <use xlink:href="#m5ed0cb114d" x="102.063557" y="191.246049" style="fill: #f4a460; stroke: #f4a460; stroke-width: 0.5; stroke-linejoin: miter"/>
     <use xlink:href="#m5ed0cb114d" x="116.178972" y="147.975805" style="fill: #f4a460; stroke: #f4a460; stroke-width: 0.5; stroke-linejoin: miter"/>
     <use xlink:href="#m5ed0cb114d" x="130.294387" y="142.075317" style="fill: #f4a460; stroke: #f4a460; stroke-width: 0.5; stroke-linejoin: miter"/>
     <use xlink:href="#m5ed0cb114d" x="144.409802" y="147.975805" style="fill: #f4a460; stroke: #f4a460; stroke-width: 0.5; stroke-linejoin: miter"/>
     <use xlink:href="#m5ed0cb114d" x="158.525217" y="149.942634" style="fill: #f4a460; stroke: #f4a460; stroke-width: 0.5; stroke-linejoin: miter"/>
     <use xlink:href="#m5ed0cb114d" x="172.640632" y="98.805073" style="fill: #f4a460; stroke: #f4a460; stroke-width: 0.5; stroke-linejoin: miter"/>
     <use xlink:href="#m5ed0cb114d" x="186.756047" y="94.871415" style="fill: #f4a460; stroke: #f4a460; stroke-width: 0.5; stroke-linejoin: miter"/>
     <use xlink:href="#m5ed0cb114d" x="200.871462" y="175.511415" style="fill: #f4a460; stroke: #f4a460; stroke-width: 0.5; stroke-linejoin: miter"/>
     <use xlink:href="#m5ed0cb114d" x="214.986877" y="169.610927" style="fill: #f4a460; stroke: #f4a460; stroke-width: 0.5; stroke-linejoin: miter"/>
     <use xlink:href="#m5ed0cb114d" x="229.102292" y="112.572878" style="fill: #f4a460; stroke: #f4a460; stroke-width: 0.5; stroke-linejoin: miter"/>
     <use xlink:href="#m5ed0cb114d" x="243.217708" y="92.904585" style="fill: #f4a460; stroke: #f4a460; stroke-width: 0.5; stroke-linejoin: miter"/>
     <use xlink:href="#m5ed0cb114d" x="257.333123" y="108.63922" style="fill: #f4a460; stroke: #f4a460; stroke-width: 0.5; stroke-linejoin: miter"/>
     <use xlink:href="#m5ed0cb114d" x="271.448538" y="128.307512" style="fill: #f4a460; stroke: #f4a460; stroke-width: 0.5; stroke-linejoin: miter"/>
     <use xlink:href="#m5ed0cb114d" x="285.563953" y="81.10361" style="fill: #f4a460; stroke: #f4a460; stroke-width: 0.5; stroke-linejoin: miter"/>
     <use xlink:href="#m5ed0cb114d" x="299.679368" y="124.373854" style="fill: #f4a460; stroke: #f4a460; stroke-width: 0.5; stroke-linejoin: miter"/>
     <use xlink:href="#m5ed0cb114d" x="313.794783" y="116.506537" style="fill: #f4a460; stroke: #f4a460; stroke-width: 0.5; stroke-linejoin: miter"/>
     <use xlink:href="#m5ed0cb114d" x="327.910198" y="94.871415" style="fill: #f4a460; stroke: #f4a460; stroke-width: 0.5; stroke-linejoin: miter"/>
     <use xlink:href="#m5ed0cb114d" x="342.025613" y="122.407024" style="fill: #f4a460; stroke: #f4a460; stroke-width: 0.5; stroke-linejoin: miter"/>
     <use xlink:href="#m5ed0cb114d" x="356.141028" y="77.169951" style="fill: #f4a460; stroke: #f4a460; stroke-width: 0.5; stroke-linejoin: miter"/>
     <use xlink:href="#m5ed0cb114d" x="370.256443" y="104.705561" style="fill: #f4a460; stroke: #f4a460; stroke-width: 0.5; stroke-linejoin: miter"/>
     <use xlink:href="#m5ed0cb114d" x="384.371858" y="57.501659" style="fill: #f4a460; stroke: #f4a460; stroke-width: 0.5; stroke-linejoin: miter"/>
     <use xlink:href="#m5ed0cb114d" x="398.487273" y="73.236293" style="fill: #f4a460; stroke: #f4a460; stroke-width: 0.5; stroke-linejoin: miter"/>
    </g>
   </g>
   <g id="patch_3">
    <path d="M 57.6 307.584
L 57.6 41.472
" style="fill: none; stroke: #000000; stroke-width: 0.8; stroke-linejoin: miter; stroke-linecap: square"/>
   </g>
   <g id="patch_4">
    <path d="M 414.72 307.584
L 414.72 41.472
" style="fill: none; stroke: #000000; stroke-width: 0.8; stroke-linejoin: miter; stroke-linecap: square"/>
   </g>
   <g id="patch_5">
    <path d="M 57.6 307.584
L 414.72 307.584
" style="fill: none; stroke: #000000; stroke-width: 0.8; stroke-linejoin: miter; stroke-linecap: square"/>
   </g>
   <g id="patch_6">
    <path d="M 57.6 41.472
L 414.72 41.472
" style="fill: none; stroke: #000000; stroke-width: 0.8; stroke-linejoin: miter; stroke-linecap: square"/>
   </g>
   <g id="legend_1">
    <g id="patch_7">
     <path d="M 309.137188 302.584
L 407.72 302.584
Q 409.72 302.584 409.72 300.584
L 409.72 256.993375
Q 409.72 254.993375 407.72 254.993375
L 309.137188 254.993375
Q 307.137188 254.993375 307.137188 256.993375
L 307.137188 300.584
Q 307.137188 302.584 309.137188 302.584
z
" style="fill: #ffffff; opacity: 0.8; stroke: #cccccc; stroke-linejoin: miter"/>
    </g>
    <g id="line2d_18">
     <path d="M 311.137188 263.091812
L 321.137188 263.091812
L 331.137188 263.091812
" style="fill: none; stroke-dasharray: 1.48,0.64; stroke-dashoffset: 0; stroke: #00ff7f; stroke-width: 0.4"/>
     <g>
      <use xlink:href="#m5a1655ac7b" x="321.137188" y="263.091812" style="fill: #00ff7f; stroke: #00ff7f; stroke-width: 0.5"/>
     </g>
    </g>
    <g id="text_17">
     <!-- top_p -->
     <g transform="translate(339.137188 266.591812) scale(0.1 -0.1)">
      <defs>
       <path id="DejaVuSans-5f" d="M 3263 -1063
L 3263 -1509
L -63 -1509
L -63 -1063
L 3263 -1063
z
" transform="scale(0.015625)"/>
      </defs>
      <use xlink:href="#DejaVuSans-74"/>
      <use xlink:href="#DejaVuSans-6f" x="39.208984"/>
      <use xlink:href="#DejaVuSans-70" x="100.390625"/>
      <use xlink:href="#DejaVuSans-5f" x="163.867188"/>
      <use xlink:href="#DejaVuSans-70" x="213.867188"/>
     </g>
    </g>
    <g id="line2d_19">
     <path d="M 311.137188 278.048062
L 321.137188 278.048062
L 331.137188 278.048062
" style="fill: none; stroke-dasharray: 1.48,0.64; stroke-dashoffset: 0; stroke: #808080; stroke-width: 0.4"/>
     <g>
      <use xlink:href="#m0d7cf798f0" x="321.137188" y="278.048062" style="fill: #808080; stroke: #808080; stroke-width: 0.5"/>
     </g>
    </g>
    <g id="text_18">
     <!-- beam_search -->
     <g transform="translate(339.137188 281.548062) scale(0.1 -0.1)">
      <defs>
       <path id="DejaVuSans-62" d="M 3116 1747
Q 3116 2381 2855 2742
Q 2594 3103 2138 3103
Q 1681 3103 1420 2742
Q 1159 2381 1159 1747
Q 1159 1113 1420 752
Q 1681 391 2138 391
Q 2594 391 2855 752
Q 3116 1113 3116 1747
z
M 1159 2969
Q 1341 3281 1617 3432
Q 1894 3584 2278 3584
Q 2916 3584 3314 3078
Q 3713 2572 3713 1747
Q 3713 922 3314 415
Q 2916 -91 2278 -91
Q 1894 -91 1617 61
Q 1341 213 1159 525
L 1159 0
L 581 0
L 581 4863
L 1159 4863
L 1159 2969
z
" transform="scale(0.015625)"/>
       <path id="DejaVuSans-6d" d="M 3328 2828
Q 3544 3216 3844 3400
Q 4144 3584 4550 3584
Q 5097 3584 5394 3201
Q 5691 2819 5691 2113
L 5691 0
L 5113 0
L 5113 2094
Q 5113 2597 4934 2840
Q 4756 3084 4391 3084
Q 3944 3084 3684 2787
Q 3425 2491 3425 1978
L 3425 0
L 2847 0
L 2847 2094
Q 2847 2600 2669 2842
Q 2491 3084 2119 3084
Q 1678 3084 1418 2786
Q 1159 2488 1159 1978
L 1159 0
L 581 0
L 581 3500
L 1159 3500
L 1159 2956
Q 1356 3278 1631 3431
Q 1906 3584 2284 3584
Q 2666 3584 2933 3390
Q 3200 3197 3328 2828
z
" transform="scale(0.015625)"/>
       <path id="DejaVuSans-68" d="M 3513 2113
L 3513 0
L 2938 0
L 2938 2094
Q 2938 2591 2744 2837
Q 2550 3084 2163 3084
Q 1697 3084 1428 2787
Q 1159 2491 1159 1978
L 1159 0
L 581 0
L 581 4863
L 1159 4863
L 1159 2956
Q 1366 3272 1645 3428
Q 1925 3584 2291 3584
Q 2894 3584 3203 3211
Q 3513 2838 3513 2113
z
" transform="scale(0.015625)"/>
      </defs>
      <use xlink:href="#DejaVuSans-62"/>
      <use xlink:href="#DejaVuSans-65" x="63.476562"/>
      <use xlink:href="#DejaVuSans-61" x="125"/>
      <use xlink:href="#DejaVuSans-6d" x="186.279297"/>
      <use xlink:href="#DejaVuSans-5f" x="283.691406"/>
      <use xlink:href="#DejaVuSans-73" x="333.691406"/>
      <use xlink:href="#DejaVuSans-65" x="385.791016"/>
      <use xlink:href="#DejaVuSans-61" x="447.314453"/>
      <use xlink:href="#DejaVuSans-72" x="508.59375"/>
      <use xlink:href="#DejaVuSans-63" x="547.457031"/>
      <use xlink:href="#DejaVuSans-68" x="602.4375"/>
     </g>
    </g>
    <g id="line2d_20">
     <path d="M 311.137188 293.004312
L 321.137188 293.004312
L 331.137188 293.004312
" style="fill: none; stroke-dasharray: 1.48,0.64; stroke-dashoffset: 0; stroke: #f4a460; stroke-width: 0.4"/>
     <g>
      <use xlink:href="#m5ed0cb114d" x="321.137188" y="293.004312" style="fill: #f4a460; stroke: #f4a460; stroke-width: 0.5; stroke-linejoin: miter"/>
     </g>
    </g>
    <g id="text_19">
     <!-- mixed -->
     <g transform="translate(339.137188 296.504312) scale(0.1 -0.1)">
      <defs>
       <path id="DejaVuSans-78" d="M 3513 3500
L 2247 1797
L 3578 0
L 2900 0
L 1881 1375
L 863 0
L 184 0
L 1544 1831
L 300 3500
L 978 3500
L 1906 2253
L 2834 3500
L 3513 3500
z
" transform="scale(0.015625)"/>
      </defs>
      <use xlink:href="#DejaVuSans-6d"/>
      <use xlink:href="#DejaVuSans-69" x="97.412109"/>
      <use xlink:href="#DejaVuSans-78" x="125.195312"/>
      <use xlink:href="#DejaVuSans-65" x="181.25"/>
      <use xlink:href="#DejaVuSans-64" x="242.773438"/>
     </g>
    </g>
   </g>
  </g>
 </g>
 <defs>
  <clipPath id="p3b1185dd56">
   <rect x="57.6" y="41.472" width="357.12" height="266.112"/>
  </clipPath>
 </defs>
</svg>
